<?xml version="1.0" encoding="UTF-8" standalone="no"?>
<!DOCTYPE svg PUBLIC "-//W3C//DTD SVG 1.1//EN" "http://www.w3.org/Graphics/SVG/1.1/DTD/svg11.dtd">
<svg width="100%" height="100%" viewBox="0 0 800 800" version="1.1" xmlns="http://www.w3.org/2000/svg" xmlns:xlink="http://www.w3.org/1999/xlink" xml:space="preserve" xmlns:serif="http://www.serif.com/" style="fill-rule:evenodd;clip-rule:evenodd;stroke-linejoin:round;stroke-miterlimit:2;">
    <g transform="matrix(33.333333,0,0,33.333333,0,0)">
        <path d="M13.75,5L13.75,12.256C14.675,11.621 15.794,11.25 17,11.25C20.176,11.25 22.75,13.824 22.75,17C22.75,20.176 20.176,22.75 17,22.75C15.064,22.75 13.351,21.793 12.309,20.326C11.21,20.871 9.469,21.25 7.5,21.25C5.182,21.25 3.181,20.733 2.183,20.033C1.546,19.586 1.25,19.038 1.25,18.5L1.25,5C1.25,4.462 1.546,3.914 2.183,3.467C3.181,2.767 5.182,2.25 7.5,2.25C9.818,2.25 11.819,2.767 12.817,3.467C13.454,3.914 13.75,4.462 13.75,5ZM2.75,5C2.75,5.076 2.827,5.125 2.901,5.192C3.028,5.307 3.196,5.411 3.394,5.509C4.319,5.968 5.816,6.25 7.5,6.25C9.185,6.25 10.681,5.968 11.606,5.509C11.804,5.411 11.972,5.307 12.099,5.192C12.173,5.125 12.25,5.076 12.25,5C12.25,4.924 12.173,4.875 12.099,4.808C11.972,4.693 11.804,4.589 11.606,4.491C10.681,4.032 9.185,3.75 7.5,3.75C5.816,3.75 4.319,4.032 3.394,4.491C3.196,4.589 3.028,4.693 2.901,4.808C2.827,4.875 2.75,4.924 2.75,5ZM2.75,9.5C2.75,9.576 2.827,9.625 2.901,9.692C3.028,9.807 3.196,9.911 3.394,10.009C4.319,10.468 5.816,10.75 7.5,10.75C9.185,10.75 10.681,10.468 11.606,10.009C11.804,9.911 11.972,9.807 12.099,9.692C12.173,9.625 12.25,9.576 12.25,9.5L12.25,6.86C11.156,7.388 9.439,7.75 7.5,7.75C5.561,7.75 3.844,7.388 2.75,6.86L2.75,9.5ZM2.75,14C2.75,14.076 2.827,14.125 2.901,14.192C3.028,14.307 3.196,14.411 3.394,14.509C4.319,14.968 5.816,15.25 7.5,15.25C9.396,15.25 11.055,14.908 11.899,14.345C12.004,14.142 12.122,13.946 12.25,13.759L12.25,11.36C11.156,11.888 9.439,12.25 7.5,12.25C5.561,12.25 3.844,11.888 2.75,11.36L2.75,14ZM11.613,19.015C11.378,18.388 11.25,17.709 11.25,17C11.25,16.737 11.268,16.479 11.302,16.225C10.268,16.548 8.945,16.75 7.5,16.75C5.561,16.75 3.844,16.388 2.75,15.86L2.75,18.5C2.75,18.576 2.827,18.625 2.901,18.692C3.028,18.807 3.196,18.911 3.394,19.009C4.319,19.468 5.816,19.75 7.5,19.75C9.204,19.75 10.717,19.478 11.613,19.015ZM12.75,17C12.75,19.347 14.653,21.25 17,21.25C19.347,21.25 21.25,19.347 21.25,17C21.25,14.653 19.347,12.75 17,12.75C14.653,12.75 12.75,14.653 12.75,17Z"/>
    </g>
</svg>
